<mxfile host="app.diagrams.net" modified="2023-03-28T15:41:50.009Z" agent="Mozilla/5.0 (X11; Linux x86_64) AppleWebKit/537.36 (KHTML, like Gecko) Chrome/111.0.0.0 Safari/537.36" etag="ZAKKiOXYfvPD5zYVRiXX" version="21.1.1" type="device">
  <diagram name="Page-1" id="yWowMTtayS1ZynBobYyf">
    <mxGraphModel dx="1111" dy="631" grid="1" gridSize="10" guides="1" tooltips="1" connect="1" arrows="1" fold="1" page="1" pageScale="1" pageWidth="850" pageHeight="1100" math="0" shadow="0">
      <root>
        <mxCell id="0" />
        <mxCell id="1" parent="0" />
        <mxCell id="bktB7Bni2_66pWsPMCE5-1" value="User" style="shape=umlActor;verticalLabelPosition=bottom;verticalAlign=top;html=1;outlineConnect=0;" parent="1" vertex="1">
          <mxGeometry x="20" y="320" width="30" height="60" as="geometry" />
        </mxCell>
        <mxCell id="bktB7Bni2_66pWsPMCE5-5" value="Garage" style="ellipse;whiteSpace=wrap;html=1;" parent="1" vertex="1">
          <mxGeometry x="200" y="140.00000000000003" width="120" height="40" as="geometry" />
        </mxCell>
        <mxCell id="bktB7Bni2_66pWsPMCE5-8" value="" style="endArrow=none;html=1;rounded=0;entryX=0;entryY=1;entryDx=0;entryDy=0;" parent="1" source="bktB7Bni2_66pWsPMCE5-1" target="bktB7Bni2_66pWsPMCE5-5" edge="1">
          <mxGeometry width="50" height="50" relative="1" as="geometry">
            <mxPoint x="80" y="270" as="sourcePoint" />
            <mxPoint x="150" y="288.79" as="targetPoint" />
          </mxGeometry>
        </mxCell>
        <mxCell id="bktB7Bni2_66pWsPMCE5-9" value="Expenses&lt;br&gt;Tracking" style="ellipse;whiteSpace=wrap;html=1;" parent="1" vertex="1">
          <mxGeometry x="425" y="30" width="120" height="60" as="geometry" />
        </mxCell>
        <mxCell id="bktB7Bni2_66pWsPMCE5-11" value="Extends" style="endArrow=classic;html=1;rounded=0;entryX=1;entryY=0;entryDx=0;entryDy=0;exitX=0;exitY=1;exitDx=0;exitDy=0;" parent="1" source="bktB7Bni2_66pWsPMCE5-9" target="bktB7Bni2_66pWsPMCE5-5" edge="1">
          <mxGeometry width="50" height="50" relative="1" as="geometry">
            <mxPoint x="427.57359312880726" y="170.0032034355964" as="sourcePoint" />
            <mxPoint x="450" y="498.79" as="targetPoint" />
          </mxGeometry>
        </mxCell>
        <mxCell id="bktB7Bni2_66pWsPMCE5-12" value="News Feed" style="ellipse;whiteSpace=wrap;html=1;" parent="1" vertex="1">
          <mxGeometry x="200" y="248.79000000000002" width="120" height="50" as="geometry" />
        </mxCell>
        <mxCell id="bktB7Bni2_66pWsPMCE5-13" value="" style="endArrow=none;html=1;rounded=0;entryX=0;entryY=0.5;entryDx=0;entryDy=0;" parent="1" source="bktB7Bni2_66pWsPMCE5-1" target="bktB7Bni2_66pWsPMCE5-12" edge="1">
          <mxGeometry width="50" height="50" relative="1" as="geometry">
            <mxPoint x="60" y="340" as="sourcePoint" />
            <mxPoint x="450" y="498.79" as="targetPoint" />
          </mxGeometry>
        </mxCell>
        <mxCell id="bktB7Bni2_66pWsPMCE5-14" value="Forum" style="ellipse;whiteSpace=wrap;html=1;" parent="1" vertex="1">
          <mxGeometry x="200" y="320" width="120" height="50" as="geometry" />
        </mxCell>
        <mxCell id="bktB7Bni2_66pWsPMCE5-15" value="" style="endArrow=none;html=1;rounded=0;entryX=0;entryY=0;entryDx=0;entryDy=0;" parent="1" source="bktB7Bni2_66pWsPMCE5-1" target="bktB7Bni2_66pWsPMCE5-14" edge="1">
          <mxGeometry width="50" height="50" relative="1" as="geometry">
            <mxPoint x="60" y="350" as="sourcePoint" />
            <mxPoint x="450" y="498.79" as="targetPoint" />
          </mxGeometry>
        </mxCell>
        <mxCell id="bktB7Bni2_66pWsPMCE5-16" value="Maintenance and&lt;br&gt;Problem History" style="ellipse;whiteSpace=wrap;html=1;" parent="1" vertex="1">
          <mxGeometry x="425" y="130" width="120" height="60" as="geometry" />
        </mxCell>
        <mxCell id="bktB7Bni2_66pWsPMCE5-17" value="Extends" style="endArrow=classic;html=1;rounded=0;entryX=1;entryY=0.5;entryDx=0;entryDy=0;exitX=0;exitY=0.5;exitDx=0;exitDy=0;" parent="1" source="bktB7Bni2_66pWsPMCE5-16" target="bktB7Bni2_66pWsPMCE5-5" edge="1">
          <mxGeometry width="50" height="50" relative="1" as="geometry">
            <mxPoint x="400" y="538.79" as="sourcePoint" />
            <mxPoint x="450" y="488.79" as="targetPoint" />
          </mxGeometry>
        </mxCell>
        <mxCell id="bktB7Bni2_66pWsPMCE5-18" value="Vehicle&lt;br&gt;Upgrades" style="ellipse;whiteSpace=wrap;html=1;" parent="1" vertex="1">
          <mxGeometry x="425" y="230" width="120" height="50" as="geometry" />
        </mxCell>
        <mxCell id="bktB7Bni2_66pWsPMCE5-19" value="Extends" style="endArrow=classic;html=1;rounded=0;entryX=1;entryY=1;entryDx=0;entryDy=0;exitX=0;exitY=0;exitDx=0;exitDy=0;" parent="1" source="bktB7Bni2_66pWsPMCE5-18" target="bktB7Bni2_66pWsPMCE5-5" edge="1">
          <mxGeometry width="50" height="50" relative="1" as="geometry">
            <mxPoint x="400" y="538.79" as="sourcePoint" />
            <mxPoint x="450" y="488.79" as="targetPoint" />
          </mxGeometry>
        </mxCell>
        <mxCell id="bktB7Bni2_66pWsPMCE5-20" value="Membership" style="ellipse;whiteSpace=wrap;html=1;" parent="1" vertex="1">
          <mxGeometry x="200" y="400" width="120" height="50" as="geometry" />
        </mxCell>
        <mxCell id="bktB7Bni2_66pWsPMCE5-21" value="" style="endArrow=none;html=1;rounded=0;entryX=0;entryY=0;entryDx=0;entryDy=0;" parent="1" source="bktB7Bni2_66pWsPMCE5-1" target="bktB7Bni2_66pWsPMCE5-20" edge="1">
          <mxGeometry width="50" height="50" relative="1" as="geometry">
            <mxPoint x="60" y="350" as="sourcePoint" />
            <mxPoint x="450" y="488.79" as="targetPoint" />
          </mxGeometry>
        </mxCell>
        <mxCell id="bktB7Bni2_66pWsPMCE5-24" value="Map" style="ellipse;whiteSpace=wrap;html=1;" parent="1" vertex="1">
          <mxGeometry x="200" y="470" width="120" height="50" as="geometry" />
        </mxCell>
        <mxCell id="bktB7Bni2_66pWsPMCE5-25" value="" style="endArrow=none;html=1;rounded=0;exitX=0;exitY=0;exitDx=0;exitDy=0;" parent="1" source="bktB7Bni2_66pWsPMCE5-24" target="bktB7Bni2_66pWsPMCE5-1" edge="1">
          <mxGeometry width="50" height="50" relative="1" as="geometry">
            <mxPoint x="400" y="420" as="sourcePoint" />
            <mxPoint x="450" y="370" as="targetPoint" />
          </mxGeometry>
        </mxCell>
        <mxCell id="ymL-ZavHA-vIrFOXtNge-3" value="" style="rounded=0;whiteSpace=wrap;html=1;fillColor=none;" vertex="1" parent="1">
          <mxGeometry x="80" y="20" width="520" height="520" as="geometry" />
        </mxCell>
      </root>
    </mxGraphModel>
  </diagram>
</mxfile>
